PathFileType	4	(X/Y/Z)	T1_P2_NoVision_Movement_2_0-733.trc
DataRate	CameraRate	NumFrames	NumMarkers	Units	OrigDataRate	OrigDataStartFrame	OrigNumFrames
60	60	7	27	m	60	641	733
Frame#	Time	RHip			RKnee			RAnkle			RBigToe			RSmallToe			RHeel			LHip			LKnee			LAnkle			LBigToe			LSmallToe			LHeel			Neck			Head			Nose			RShoulder			RElbow			RWrist			RThumb			RIndex			RPinky			LShoulder			LElbow			LWrist			LThumb			LIndex			LPinky		
		X1	Y1	Z1	X2	Y2	Z2	X3	Y3	Z3	X4	Y4	Z4	X5	Y5	Z5	X6	Y6	Z6	X7	Y7	Z7	X8	Y8	Z8	X9	Y9	Z9	X10	Y10	Z10	X11	Y11	Z11	X12	Y12	Z12	X13	Y13	Z13	X14	Y14	Z14	X15	Y15	Z15	X16	Y16	Z16	X17	Y17	Z17	X18	Y18	Z18	X19	Y19	Z19	X20	Y20	Z20	X21	Y21	Z21	X22	Y22	Z22	X23	Y23	Z23	X24	Y24	Z24	X25	Y25	Z25	X26	Y26	Z26	X27	Y27	Z27
642	10.7	456.15096548176444	3569.446776266782	528.0523740957378	847.2577747799247	3613.9263756001747	531.4067094047508	1247.5221056515063	3701.843317350049	613.9087203794901	1333.1772387111796	3627.9611888754052	610.1756062372	1314.995882147105	3640.0987743258997	550.1589159445252	1280.1774521482964	3701.1875013352346	630.4524619602346	462.2036766260936	3493.9070821879304	736.2030511420711	879.2506780051347	3524.7478957893295	741.8384486587645	1240.1189166136533	3595.4861425448307	735.0428285562836	1331.6484543105112	3560.2819272043203	689.1792012534556	1285.6834235317613	3476.632949060104	722.7131774519569	1274.0881687677463	3615.703629671394	728.8718855045589	-122.38640238875647	3513.5019691574726	635.0109889731414	-381.6608208535761	3482.085485708194	623.0716811481383	-232.82441608200602	3389.336333648126	583.7688154657508	-31.50647539571579	3627.4764607093307	532.2011308180407	206.70297508155045	3691.148044194754	453.45587151093844	446.1767868764007	3594.2216210958386	392.2129104338229	570.9471706757737	3531.9841797980157	408.3306515225174	592.7185335925166	3549.3252809739542	395.1405975243287	590.6150793869887	3622.7937962738124	392.70261452024874	-18.731953630508983	3501.239101221564	832.1209660191247	242.00042748341826	3450.1693999922954	850.0551098174373	485.4953016212177	3421.1143354659166	841.3981472166694	587.9812889069176	3428.012468854095	817.055497920875	599.6430997049094	3387.2907479323976	817.8669626567819	601.127272450496	3386.1262930201524	874.107759893944
643	10.716666666666669	458.54825419612234	3574.222955881831	531.9227958945443	847.3963514539382	3618.3742691862844	532.3247414222869	1248.3799631271013	3701.494690495718	613.8674358591968	1333.0694929138313	3628.6584937674415	609.2075566550229	1315.0935612675116	3640.4982133527496	550.3884610564411	1280.783793905889	3700.148401251724	629.9650651478602	460.5890588191105	3489.6444908635576	734.7131812728016	878.4159490120936	3524.2540612678526	741.6590807306987	1240.6647293367998	3594.919660318884	735.0144154500737	1331.62278869221	3559.953729544493	689.5376306301706	1285.7921977802444	3477.068043300792	723.074328675294	1274.102931589895	3615.5757831144238	728.7271129743554	-122.38092700247414	3513.4837013367032	635.015461412092	-381.63262516652037	3482.123773314276	623.0645322474874	-232.7476984705705	3389.4656451428546	583.7533862932271	-31.405674227451982	3627.451415479048	532.206754176537	206.8645220729951	3690.3518993790995	453.2637144150064	446.26327777097623	3595.3203200118196	393.67333358642713	570.4380815101283	3531.666414925953	408.32465565860815	591.5523654878709	3547.7384627388356	396.645539772898	590.6058038191612	3622.8961820819777	392.7719131615195	-18.714356740350155	3501.1448271923	832.0334869434242	241.89914287440973	3450.1586011513537	850.0528543199832	485.46378555247634	3420.7952492964114	841.1678475523177	587.648484658954	3427.808116328621	816.9592404203522	598.8459769586331	3383.2274612884285	816.4156257899424	601.4236018719612	3385.8216508297573	873.9663568144281
644	10.733333333333333	460.6527681988077	3580.590683174309	535.6379205018605	850.6011021203185	3628.180570122635	535.9598958906809	1248.3919225463424	3701.986257863027	614.223534812667	1333.262518967823	3629.1979449610767	609.5725195409048	1315.0193448069185	3640.6986239642943	550.3665255621884	1281.071002488653	3699.765743321936	629.8246468703044	458.99463920359847	3489.0106011874364	734.5268990253513	877.9931592927047	3523.983391351382	741.6018392057672	1240.1314157974239	3594.0300240330007	735.4764701184499	1331.4335450319043	3559.822819805944	689.6318279552133	1285.4414064137334	3476.5751061908486	722.5951290505182	1274.056010014334	3615.5578876527634	728.6925998004177	-122.37853814634533	3513.471330916858	635.0137007071336	-381.5657668029849	3482.142987401393	623.0571309961337	-232.79361843516003	3388.81555159452	583.5141625845022	-31.49236050286045	3627.4187737865386	532.2203556933147	207.6328797310014	3689.39197447705	453.35291816527945	446.74885972346556	3599.4815757622364	394.98746457102936	570.3985272713658	3531.7377666842585	408.4080933510677	591.0989255601177	3546.8464063082924	397.9350156084911	590.1161266925698	3621.0870309664065	392.18828699872444	-18.709559475379372	3500.907992970233	831.7962801001427	241.94305433566518	3450.2134362502898	850.0794530497159	485.44025603520265	3420.6159919368947	841.0269074979327	587.0801174456493	3427.4855972414134	816.7439015635168	598.2536758887519	3379.961963029676	815.2224197492942	602.707249531872	3387.195057294554	875.3969596808739
645	10.75	461.7560044357167	3588.034094579075	538.482136129939	855.7172640925471	3639.6797695319	541.5284996589721	1248.4604714705047	3703.246507967856	614.7885493815398	1333.4685135452373	3629.1721277418237	611.0770368601903	1315.0041646498025	3641.027105725102	550.4070465694261	1280.7476214202052	3700.5437129579273	630.0957308451168	458.92883294972796	3493.545958479459	736.1617940251803	878.1073236624538	3523.939669982849	741.7109065958917	1238.9844046960827	3593.1607291310074	735.8019014996652	1330.7939912257896	3559.5195334878563	689.5401487622898	1284.622024738921	3475.053303987401	721.1798286069633	1273.9767237005185	3615.663703611923	728.7482016332651	-122.39660095276525	3513.4683165398183	635.0126677592646	-381.5957924086605	3482.1194182660975	623.0534221317968	-233.2112780907964	3386.41486626011	582.7393955680107	-32.08337227505591	3627.2648022071635	532.1980175035961	208.57263087559676	3688.917759115149	454.17734908876355	446.3379042792068	3603.9988341302924	395.5652738012687	570.4360189057636	3531.8588228634635	408.4678816919003	591.0336976145655	3546.6150231669076	398.4166125420122	589.2912940042041	3617.737219064642	391.2932513482125	-18.72269111501554	3500.575368680693	831.4550463366749	241.99880525344815	3450.299973727745	850.119406807421	485.3998566801194	3421.1665571144813	841.4855232624562	586.695255240141	3427.292474737572	816.5957393047719	598.0356968178738	3378.7441918159893	814.7675273333004	603.9060552277742	3388.1366082881423	876.2392860128317
646	10.766666666666667	462.29022588729856	3593.4791553720024	539.9699207544629	860.9211025897212	3648.298867945164	547.0640057942269	1248.9318691290725	3704.3950635581914	615.2011608126288	1333.4942283535888	3628.365185345303	612.2497670960314	1315.028841494375	3640.9611518975503	550.3885265155188	1279.818441153155	3701.9516846286724	630.2080336030119	460.48331723562626	3499.109758677936	738.1592256374389	878.7688102583495	3524.2275462565835	741.9392248625668	1238.3002848031765	3592.7615458189903	735.8475781863802	1329.8087572147124	3558.933092139935	689.357709432752	1283.5672107535916	3472.949594527738	719.2567774663336	1273.9495025279507	3615.7849907742348	728.804938227533	-122.44181274279956	3513.481137858711	635.026744748449	-382.03662122382286	3481.9663271632085	623.0249137007276	-234.07748071335942	3382.6609147314316	581.5186866047204	-33.22523015893209	3626.936998878499	532.1035391738367	209.89021267271278	3692.6769017059305	456.3988241146551	444.68927189644575	3605.1766574202766	395.2918570233679	570.4103726347454	3531.8788016293292	408.45686032294446	590.9822715455138	3546.8068828188034	397.9185101821806	588.5869084712019	3614.1436637269894	390.47252158219345	-18.719938749905857	3500.6127948515964	831.4767358783469	242.02779399813852	3450.3793920629837	850.1616764982432	485.30662826257674	3423.146717553454	843.1948719844361	586.5542489959397	3427.2667329093174	816.559949993291	598.3744537559108	3380.7321437954806	815.480283524821	603.6118612786931	3385.9241828393506	873.9740362373974
647	10.783333333333331	462.55237209912866	3592.8332702427897	539.5644380655497	864.4103105441727	3651.3908022294845	550.3250306004951	1249.5718777803181	3704.843620948223	615.2895209506567	1333.2525756274422	3626.135528494831	611.6915745223796	1314.9292430258765	3639.175400005114	549.9129611410598	1278.7627891973516	3702.099124831699	629.2530569115403	462.1848820751728	3499.459481806138	738.3572239206485	879.7845985631146	3524.776656703977	742.1699524811416	1238.8589138309194	3593.1408974702967	735.8670668669494	1329.2822362223744	3558.5202151983685	689.2211713828257	1283.126382554237	3471.975831554787	718.3903282487653	1274.0517058426478	3615.862611891266	728.8279482588374	-122.50338210456374	3513.527606986657	635.0693035610732	-383.12172080471623	3481.6031556170415	622.9348077658611	-234.89052425944186	3380.4074802169775	580.7394069736184	-34.22576925100637	3626.6461603241014	532.0077903584396	211.28590177650256	3699.796692327951	458.93861261137283	443.3663255308919	3603.3149509257464	394.55678064503115	570.3438573990968	3531.819621679949	408.3975774769678	590.8304508668106	3547.2869060737157	396.5307412026542	588.5336786933307	3611.091930527923	389.9683675891482	-18.636268926511313	3502.178938728766	832.9706674952583	242.02707349636074	3450.4032826737125	850.1807305131565	485.1818978964257	3426.0889147575404	845.7785555655735	586.4754487271497	3427.2666700027094	816.5300318219295	598.935152071613	3383.973331886825	816.6388563434862	602.0990787848666	3381.2254940940807	869.8216706199636
648	10.8	462.4760670884307	3586.944308422292	537.8436372130012	866.1044923069636	3650.549493488451	550.9296337098518	1250.2820702447705	3705.2735655903107	615.3800961649332	1332.773981798809	3622.182344903861	609.1988270727991	1314.4652198314056	3634.6190787619234	548.6705855165521	1278.3294061853985	3700.082633577267	627.5565759785588	463.30381504314937	3493.757194015173	736.3942084201684	880.9212121591498	3525.3636456842332	742.3420014594689	1240.917535222305	3594.4351641923718	736.131889629019	1329.7635167644346	3558.6920758317833	689.2145961235857	1283.6078369860675	3472.821601470487	719.2011867682857	1274.2841868489793	3615.9405841509015	728.8517317421614	-122.556477364539	3513.610559009591	635.1369494908429	-384.5490737163878	3481.1171097037227	622.7988041947253	-234.95596025285278	3381.4158430438665	581.0101207384046	-34.154955401266726	3626.700238701681	532.0353775848065	212.19646958705647	3706.041644066442	460.71949875071084	444.0853537646814	3601.0034238308353	393.72402884288596	570.2977673262251	3531.735137407928	408.3267088231323	590.7743413785242	3547.9075232696123	394.81484915663424	589.3074276280886	3608.3835690234478	389.7181924930749	-18.41439801881773	3506.1980075488686	836.8075268491641	242.0124315763463	3450.3536632718647	850.1551093700691	485.12674643092123	3427.560170349736	847.0947915496372	586.3915709672045	3427.203683162958	816.4518734091046	598.8654706007131	3383.8110274643204	816.5777825031321	600.7066849297865	3376.893704779831	867.0941308375752
